<svg xmlns="http://www.w3.org/2000/svg" viewBox="0 0 512 512" width="512" height="512" role="img" aria-labelledby="constellation-black-tile-icon-title constellation-black-tile-icon-description">
  <title id="constellation-black-tile-icon-title">Astral Constellation logo tile · black · icon</title>
  <desc id="constellation-black-tile-icon-description">节点星群与四向星芒，精确、开放、具有天体导航感。 Pure icon on a rounded black color tile.</desc>

  <rect width="512" height="512" rx="112" fill="#ffffff"/>
  <rect x="1" y="1" width="510" height="510" rx="111" fill="none" stroke="#000000" stroke-opacity="0.08" stroke-width="2"/>
  <g transform="translate(20 20) scale(0.921875)">

  <g fill="none" stroke="#000000" stroke-width="16" stroke-linecap="round" stroke-linejoin="round">
    <path d="M 114 206 L 146 142 L 214 108"/>
    <path d="M 298 108 L 366 142 L 398 206"/>
    <path d="M 398 306 L 366 370 L 298 404"/>
    <path d="M 214 404 L 146 370 L 114 306"/>
  </g>
  <g fill="#000000">
    <circle cx="114" cy="206" r="18"/>
    <circle cx="398" cy="206" r="18"/>
    <circle cx="398" cy="306" r="18"/>
    <circle cx="114" cy="306" r="18"/>
    <circle cx="214" cy="108" r="12"/>
    <circle cx="298" cy="108" r="12"/>
    <circle cx="214" cy="404" r="12"/>
    <circle cx="298" cy="404" r="12"/>
    <path d="M 256 144 L 281 231 L 368 256 L 281 281 L 256 368 L 231 281 L 144 256 L 231 231 Z"/>
  </g>
  </g>
</svg>
