<svg xmlns="http://www.w3.org/2000/svg" viewBox="0 0 512 512" width="512" height="512">
<rect width="512" height="512" rx="115" fill="#f1f3f3"/><rect width="512" height="512" rx="115" fill="none" stroke="#000000" stroke-opacity="0.08" stroke-width="2"/>
    
<g transform="translate(148 78.60) scale(0.421875)">
    <g fill="none" stroke="#161b1d" stroke-linecap="round">
      <circle cx="256" cy="256" r="96" stroke-width="34"/>
      <path d="M 464 256 A 208 142 -30 1 1 48 256 A 208 142 -30 1 1 464 256" stroke-width="30"/>
    </g>
    <circle cx="417.48" cy="297.08" r="32" fill="#161b1d"/></g>
    <path d="M 50 10 A 40 40 0 0 1 50 90 A 40 40 0 0 1 50 10" fill="none" stroke="#161b1d" stroke-width="12.4" stroke-linecap="round" stroke-linejoin="round" transform="translate(87.36 371.40000000000003) scale(0.62)"/>
    <path d="M 90 10 L 90 90" fill="none" stroke="#161b1d" stroke-width="12.4" stroke-linecap="round" stroke-linejoin="round" transform="translate(87.36 371.40000000000003) scale(0.62)"/>
    <path d="M 61 26 C 53 10 35 6 23 13 C 10 21 12 37 26 45 C 42 54 58 58 56 74 C 54 89 32 95 16 85" fill="none" stroke="#161b1d" stroke-width="12.4" stroke-linecap="round" stroke-linejoin="round" transform="translate(165.48 371.40000000000003) scale(0.62)"/>
    <path d="M 30 -30 L 30 90" fill="none" stroke="#161b1d" stroke-width="12.4" stroke-linecap="round" stroke-linejoin="round" transform="translate(225.00 371.40000000000003) scale(0.62)"/>
    <path d="M 10 10 L 50 10" fill="none" stroke="#161b1d" stroke-width="12.4" stroke-linecap="round" stroke-linejoin="round" transform="translate(225.00 371.40000000000003) scale(0.62)"/>
    <path d="M 10 10 L 10 90" fill="none" stroke="#161b1d" stroke-width="12.4" stroke-linecap="round" stroke-linejoin="round" transform="translate(278.32 371.40000000000003) scale(0.62)"/>
    <path d="M 10 62 C 10 28 40 14 54 32" fill="none" stroke="#161b1d" stroke-width="12.4" stroke-linecap="round" stroke-linejoin="round" transform="translate(278.32 371.40000000000003) scale(0.62)"/>
    <path d="M 50 10 A 40 40 0 0 1 50 90 A 40 40 0 0 1 50 10" fill="none" stroke="#161b1d" stroke-width="12.4" stroke-linecap="round" stroke-linejoin="round" transform="translate(334.12 371.40000000000003) scale(0.62)"/>
    <path d="M 90 10 L 90 90" fill="none" stroke="#161b1d" stroke-width="12.4" stroke-linecap="round" stroke-linejoin="round" transform="translate(334.12 371.40000000000003) scale(0.62)"/>
    <path d="M 10 -30 L 10 90" fill="none" stroke="#161b1d" stroke-width="12.4" stroke-linecap="round" stroke-linejoin="round" transform="translate(412.24 371.40000000000003) scale(0.62)"/>

</svg>
