<svg xmlns="http://www.w3.org/2000/svg" viewBox="0 0 630 240" width="630" height="240" role="img" aria-labelledby="prism-primary-horizontal-title prism-primary-horizontal-description">
  <title id="prism-primary-horizontal-title">Astral Prism logo · primary · icon with wordmark</title>
  <desc id="prism-primary-horizontal-description">由四个平面组成的几何 A，厚重、锐利，适合产品图标。 Horizontal icon and custom path wordmark.</desc>

  <g transform="translate(28 22) scale(0.382813)">

  <g fill="#161b1d">
    <path d="M 238 62 L 250 62 L 181 418 L 86 418 Z"/>
    <path d="M 262 62 L 274 62 L 426 418 L 331 418 Z"/>
    <path d="M 238 62 L 274 62 L 306 136 L 207 136 Z"/>
    <path d="M 150 260 L 362 260 L 389 322 L 123 322 Z"/>
  </g>
  </g>
  <g aria-label="astral wordmark">
    <path d="M 63 58 C 63 36 49 21 32 21 C 15 21 5 37 5 59 C 5 81 16 97 32 97 C 46 97 57 88 63 77" fill="none" stroke="#161b1d" stroke-width="10.92" stroke-linecap="round" stroke-linejoin="round" transform="translate(272.00 68.00) scale(0.78)"/>
    <path d="M 63 21 L 63 97" fill="none" stroke="#161b1d" stroke-width="10.92" stroke-linecap="round" stroke-linejoin="round" transform="translate(272.00 68.00) scale(0.78)"/>
    <path d="M 57 32 C 50 23 40 20 29 20 C 15 20 6 28 6 40 C 6 52 15 58 30 62 C 46 66 57 72 57 84 C 57 96 46 102 31 102 C 18 102 9 98 3 90" fill="none" stroke="#161b1d" stroke-width="10.92" stroke-linecap="round" stroke-linejoin="round" transform="translate(340.64 68.00) scale(0.78)"/>
    <path d="M 28 4 L 28 91 C 28 99 33 102 40 102 C 45 102 50 100 53 97" fill="none" stroke="#161b1d" stroke-width="10.92" stroke-linecap="round" stroke-linejoin="round" transform="translate(401.48 68.00) scale(0.78)"/>
    <path d="M 10 27 L 50 27" fill="none" stroke="#161b1d" stroke-width="10.92" stroke-linecap="round" stroke-linejoin="round" transform="translate(401.48 68.00) scale(0.78)"/>
    <path d="M 8 21 L 8 98" fill="none" stroke="#161b1d" stroke-width="10.92" stroke-linecap="round" stroke-linejoin="round" transform="translate(457.64 68.00) scale(0.78)"/>
    <path d="M 8 55 C 9 34 21 21 39 21 C 48 21 55 26 59 33" fill="none" stroke="#161b1d" stroke-width="10.92" stroke-linecap="round" stroke-linejoin="round" transform="translate(457.64 68.00) scale(0.78)"/>
    <path d="M 63 58 C 63 36 49 21 32 21 C 15 21 5 37 5 59 C 5 81 16 97 32 97 C 46 97 57 88 63 77" fill="none" stroke="#161b1d" stroke-width="10.92" stroke-linecap="round" stroke-linejoin="round" transform="translate(517.70 68.00) scale(0.78)"/>
    <path d="M 63 21 L 63 97" fill="none" stroke="#161b1d" stroke-width="10.92" stroke-linecap="round" stroke-linejoin="round" transform="translate(517.70 68.00) scale(0.78)"/>
    <path d="M 10 4 L 10 98" fill="none" stroke="#161b1d" stroke-width="10.92" stroke-linecap="round" stroke-linejoin="round" transform="translate(586.34 68.00) scale(0.78)"/>
  </g>
</svg>
