<svg xmlns="http://www.w3.org/2000/svg" viewBox="0 0 751 280" width="751" height="280">
<g transform="translate(24 24) scale(0.453125)">
    <path d="M 225.31 148.38 A 34 34 0 0 1 286.69 148.38 L 396.82 379.37 A 34 34 0 0 1 366.12 428.00 L 145.88 428.00 A 34 34 0 0 1 115.18 379.37 Z M 256 232 Q 268 300 336 312 Q 268 324 256 392 Q 244 324 176 312 Q 244 300 256 232 Z" fill="#161b1d" fill-rule="evenodd"/></g>
    <path d="M 50 10 A 40 40 0 0 1 50 90 A 40 40 0 0 1 50 10" fill="none" stroke="#161b1d" stroke-width="14.8" stroke-linecap="round" stroke-linejoin="round" transform="translate(320.00 103) scale(0.74)"/>
    <path d="M 90 10 L 90 90" fill="none" stroke="#161b1d" stroke-width="14.8" stroke-linecap="round" stroke-linejoin="round" transform="translate(320.00 103) scale(0.74)"/>
    <path d="M 61 26 C 53 10 35 6 23 13 C 10 21 12 37 26 45 C 42 54 58 58 56 74 C 54 89 32 95 16 85" fill="none" stroke="#161b1d" stroke-width="14.8" stroke-linecap="round" stroke-linejoin="round" transform="translate(413.24 103) scale(0.74)"/>
    <path d="M 30 -30 L 30 90" fill="none" stroke="#161b1d" stroke-width="14.8" stroke-linecap="round" stroke-linejoin="round" transform="translate(484.28 103) scale(0.74)"/>
    <path d="M 10 10 L 50 10" fill="none" stroke="#161b1d" stroke-width="14.8" stroke-linecap="round" stroke-linejoin="round" transform="translate(484.28 103) scale(0.74)"/>
    <path d="M 10 10 L 10 90" fill="none" stroke="#161b1d" stroke-width="14.8" stroke-linecap="round" stroke-linejoin="round" transform="translate(547.92 103) scale(0.74)"/>
    <path d="M 10 62 C 10 28 40 14 54 32" fill="none" stroke="#161b1d" stroke-width="14.8" stroke-linecap="round" stroke-linejoin="round" transform="translate(547.92 103) scale(0.74)"/>
    <path d="M 50 10 A 40 40 0 0 1 50 90 A 40 40 0 0 1 50 10" fill="none" stroke="#161b1d" stroke-width="14.8" stroke-linecap="round" stroke-linejoin="round" transform="translate(614.52 103) scale(0.74)"/>
    <path d="M 90 10 L 90 90" fill="none" stroke="#161b1d" stroke-width="14.8" stroke-linecap="round" stroke-linejoin="round" transform="translate(614.52 103) scale(0.74)"/>
    <path d="M 10 -30 L 10 90" fill="none" stroke="#161b1d" stroke-width="14.8" stroke-linecap="round" stroke-linejoin="round" transform="translate(707.76 103) scale(0.74)"/>
</svg>
