<svg xmlns="http://www.w3.org/2000/svg" viewBox="0 0 630 240" width="630" height="240" role="img" aria-labelledby="constellation-primary-horizontal-title constellation-primary-horizontal-description">
  <title id="constellation-primary-horizontal-title">Astral Constellation logo · primary · icon with wordmark</title>
  <desc id="constellation-primary-horizontal-description">节点星群与四向星芒，精确、开放、具有天体导航感。 Horizontal icon and custom path wordmark.</desc>

  <g transform="translate(28 22) scale(0.382813)">

  <g fill="none" stroke="#161b1d" stroke-width="16" stroke-linecap="round" stroke-linejoin="round">
    <path d="M 114 206 L 146 142 L 214 108"/>
    <path d="M 298 108 L 366 142 L 398 206"/>
    <path d="M 398 306 L 366 370 L 298 404"/>
    <path d="M 214 404 L 146 370 L 114 306"/>
  </g>
  <g fill="#161b1d">
    <circle cx="114" cy="206" r="18"/>
    <circle cx="398" cy="206" r="18"/>
    <circle cx="398" cy="306" r="18"/>
    <circle cx="114" cy="306" r="18"/>
    <circle cx="214" cy="108" r="12"/>
    <circle cx="298" cy="108" r="12"/>
    <circle cx="214" cy="404" r="12"/>
    <circle cx="298" cy="404" r="12"/>
    <path d="M 256 144 L 281 231 L 368 256 L 281 281 L 256 368 L 231 281 L 144 256 L 231 231 Z"/>
  </g>
  </g>
  <g aria-label="astral wordmark">
    <path d="M 63 58 C 63 36 49 21 32 21 C 15 21 5 37 5 59 C 5 81 16 97 32 97 C 46 97 57 88 63 77" fill="none" stroke="#161b1d" stroke-width="10.92" stroke-linecap="round" stroke-linejoin="round" transform="translate(272.00 68.00) scale(0.78)"/>
    <path d="M 63 21 L 63 97" fill="none" stroke="#161b1d" stroke-width="10.92" stroke-linecap="round" stroke-linejoin="round" transform="translate(272.00 68.00) scale(0.78)"/>
    <path d="M 57 32 C 50 23 40 20 29 20 C 15 20 6 28 6 40 C 6 52 15 58 30 62 C 46 66 57 72 57 84 C 57 96 46 102 31 102 C 18 102 9 98 3 90" fill="none" stroke="#161b1d" stroke-width="10.92" stroke-linecap="round" stroke-linejoin="round" transform="translate(340.64 68.00) scale(0.78)"/>
    <path d="M 28 4 L 28 91 C 28 99 33 102 40 102 C 45 102 50 100 53 97" fill="none" stroke="#161b1d" stroke-width="10.92" stroke-linecap="round" stroke-linejoin="round" transform="translate(401.48 68.00) scale(0.78)"/>
    <path d="M 10 27 L 50 27" fill="none" stroke="#161b1d" stroke-width="10.92" stroke-linecap="round" stroke-linejoin="round" transform="translate(401.48 68.00) scale(0.78)"/>
    <path d="M 8 21 L 8 98" fill="none" stroke="#161b1d" stroke-width="10.92" stroke-linecap="round" stroke-linejoin="round" transform="translate(457.64 68.00) scale(0.78)"/>
    <path d="M 8 55 C 9 34 21 21 39 21 C 48 21 55 26 59 33" fill="none" stroke="#161b1d" stroke-width="10.92" stroke-linecap="round" stroke-linejoin="round" transform="translate(457.64 68.00) scale(0.78)"/>
    <path d="M 63 58 C 63 36 49 21 32 21 C 15 21 5 37 5 59 C 5 81 16 97 32 97 C 46 97 57 88 63 77" fill="none" stroke="#161b1d" stroke-width="10.92" stroke-linecap="round" stroke-linejoin="round" transform="translate(517.70 68.00) scale(0.78)"/>
    <path d="M 63 21 L 63 97" fill="none" stroke="#161b1d" stroke-width="10.92" stroke-linecap="round" stroke-linejoin="round" transform="translate(517.70 68.00) scale(0.78)"/>
    <path d="M 10 4 L 10 98" fill="none" stroke="#161b1d" stroke-width="10.92" stroke-linecap="round" stroke-linejoin="round" transform="translate(586.34 68.00) scale(0.78)"/>
  </g>
</svg>
